<svg class="svg-standalone-icon" width="100%" viewBox="68.23883519612558 199.36439532866547 55.77633038025792 71.36636449532938"><g data-paper-data="{&quot;fillRule&quot;:&quot;nonzero&quot;,&quot;fillRuleOriginal&quot;:&quot;nonzero&quot;,&quot;isIcon&quot;:true,&quot;iconStyle&quot;:&quot;icon-in-text&quot;,&quot;selectedEffects&quot;:{&quot;container&quot;:&quot;shield_simple_filled&quot;,&quot;transformation&quot;:&quot;rotate0;translate50&quot;,&quot;pattern&quot;:&quot;&quot;},&quot;bounds&quot;:{&quot;x&quot;:68.23883519612558,&quot;y&quot;:199.36439532866547,&quot;width&quot;:55.77633038025792,&quot;height&quot;:71.36636449532938},&quot;widthRatioIconToContainer&quot;:0.8987905151854049,&quot;heightRatioIconToContainer&quot;:0.5775680565909811,&quot;relativeBoundsIconToContainer&quot;:{&quot;top&quot;:-0.007598265262722812,&quot;left&quot;:0.000002435086693196266},&quot;iconType&quot;:&quot;icon&quot;,&quot;rawIconId&quot;:&quot;1d38414a-b506-4a12-a184-bdce806f4888&quot;,&quot;isDetailed&quot;:false,&quot;blockLetter&quot;:&quot;V&quot;,&quot;suitableAsStandaloneIcon&quot;:true}" fill-rule="nonzero"><path d="M94.10089,270.23396c-1.77556,-0.70079 -5.05735,-2.3287 -6.76029,-3.35341c-3.30595,-1.9893 -7.36609,-5.46953 -9.88916,-8.4767c-4.62934,-5.51758 -8.21012,-13.5887 -9.02429,-20.34091c-0.23858,-1.97865 -0.25641,-33.89047 -0.01939,-34.7169c0.18952,-0.6608 0.72697,-1.29076 1.39989,-1.64084c0.52586,-0.27357 4.36391,-0.85565 9.75862,-1.48002c6.54766,-0.7578 8.64422,-0.8651 16.81621,-0.86065c8.46222,0.00461 10.92014,0.15118 18.50629,1.10353c7.58514,0.95223 7.98559,1.05204 8.74555,2.17975l0.38084,0.56513v17.43621c0,11.72295 -0.05964,17.7648 -0.18204,18.43904c-1.52696,8.41184 -5.45558,16.04445 -11.21789,21.79441c-3.93307,3.92463 -8.72423,7.07469 -13.95115,9.1725c-2.13,0.85487 -2.78533,0.88055 -4.5632,0.17886zM83.17141,214.02537v10.29665l-4.01504,5.05119l-4.46836,-4.79215c0.84186,-2.13704 2.33131,-4.01504 4.20932,-5.31022v-4.01504c-2.91415,1.35993 -5.31022,3.69125 -6.79967,6.54064c-0.38855,0.84186 -0.7771,1.74849 -1.03614,2.65511l6.47588,6.92919v6.67015c-0.51807,-0.7771 -1.03614,-1.55421 -1.42469,-2.33131v6.41112c1.94276,2.59035 4.20932,4.92167 6.34636,6.86443v-4.98643c-0.51807,-0.51807 -0.97138,-1.03614 -1.42469,-1.55421v-11.07375l5.63401,-7.05871v-10.29665c-0.51807,-0.06476 -1.03614,-0.12952 -1.61897,-0.12952c-0.64759,0 -1.23042,0.06476 -1.878,0.12952zM100.51715,215.89346c0,0 0,0 0,0v0zM100.51715,230.56535l-4.39002,4.56331l-4.44778,-4.56331v-14.67189c-0.98198,-0.51987 -2.02172,-0.98198 -3.11922,-1.21303v17.15572l6.06515,6.29621v12.24583l-1.67514,-1.21303v3.87015c1.03974,0.69316 2.07948,1.38632 3.17698,2.07948c1.0975,-0.69316 2.13724,-1.38632 3.11922,-2.07948v-3.87015c-0.46211,0.40434 -0.98198,0.75092 -1.44408,1.0975v-12.30359l5.89186,-6.12292v-17.15572c-1.15526,0.23105 -2.19501,0.69316 -3.17698,1.21303zM113.35694,215.25579v4.01504c1.878,1.29517 3.36745,3.17318 4.20932,5.31022l-4.4036,4.79215l-4.0798,-5.05119v-10.29665c-0.58283,-0.06476 -1.23042,-0.12952 -1.878,-0.12952c-0.51807,0 -1.1009,0.06476 -1.61897,0.12952v10.29665l5.63401,7.05871v11.07375c-0.45331,0.51807 -0.90662,1.03614 -1.42469,1.55421v4.98643c2.13704,-1.94276 4.4036,-4.27408 6.34636,-6.86443v-6.41112c-0.38855,0.7771 -0.84186,1.55421 -1.35993,2.33131v-6.67015l3.43222,-3.75601l2.9789,-3.17318c-0.25903,-0.90662 -0.58283,-1.81324 -1.03614,-2.65511c-1.48945,-2.84939 -3.88553,-5.1807 -6.79967,-6.54064z" data-paper-data="{&quot;isPathIcon&quot;:true}"></path></g></svg>