<svg xmlns:mydata="http://www.w3.org/2000/svg" mydata:contrastcolor="194714" mydata:template="Contrast" mydata:presentation="2.5" mydata:layouttype="undefined" mydata:specialfontid="undefined" mydata:id1="331" mydata:id2="768" mydata:companyname="YA-RA" mydata:companytagline="" version="1.1" xmlns="http://www.w3.org/2000/svg" xmlns:xlink="http://www.w3.org/1999/xlink" viewBox="0 0 550 470" class="svg-signboard"><defs style="fill: rgb(0, 0, 0);"><linearGradient x1="68.23884" y1="235" x2="481.76116" y2="235" gradientUnits="userSpaceOnUse" id="color-148417" style="fill: rgb(0, 0, 0);"><stop offset="0" stop-color="#ed4264" style="fill: rgb(0, 0, 0);"></stop><stop offset="1" stop-color="#ffedbc" style="fill: rgb(0, 0, 0);"></stop></linearGradient></defs><g fill="url(#color-148417)" fill-rule="none" stroke="none" stroke-width="1" stroke-linecap="butt" stroke-linejoin="miter" stroke-miterlimit="10" stroke-dasharray="" stroke-dashoffset="0" font-family="none" font-weight="none" font-size="none" text-anchor="none" style="mix-blend-mode: normal; fill: rgb(0, 0, 0);"><g data-paper-data="{&quot;isGlobalGroup&quot;:true,&quot;bounds&quot;:{&quot;x&quot;:68.23883519612558,&quot;y&quot;:197.68332096499773,&quot;width&quot;:413.5223296077487,&quot;height&quot;:74.63335807000453}}" style="fill: rgb(0, 0, 0);"><g data-paper-data="{&quot;isPrimaryText&quot;:true}" style="fill: rgb(0, 0, 0);"><path d="M184.71858,237.71192v33.01884h-11.89439v-33.01884l-29.11748,-38.34753h14.55874l21.2196,26.45313l19.79227,-26.45313h15.89091z" data-paper-data="{&quot;glyphName&quot;:&quot;Y&quot;,&quot;glyphIndex&quot;:0,&quot;firstGlyphOfWord&quot;:true,&quot;word&quot;:1}" fill-rule="nonzero" style="fill: rgb(0, 0, 0);"></path><path d="M239.24248,199.26924l35.77834,71.46152h-14.46358l-21.31475,-44.91323l-21.2196,44.91323h-14.46358z" data-paper-data="{&quot;glyphName&quot;:&quot;A&quot;,&quot;glyphIndex&quot;:1,&quot;word&quot;:1}" fill-rule="nonzero" style="fill: rgb(0, 0, 0);"></path><path d="M321.742,230.95591v11.98955h-33.68492v-11.98955z" data-paper-data="{&quot;glyphName&quot;:&quot;-&quot;,&quot;glyphIndex&quot;:2,&quot;word&quot;:1}" fill-rule="nonzero" style="fill: rgb(0, 0, 0);"></path><path d="M383.40253,272.31668h13.22657c0.13269,0 0.26326,-0.01641 0.39172,-0.04922c0.12899,-0.03281 0.25163,-0.08101 0.36793,-0.1446c0.04546,-0.02488 0.08987,-0.05194 0.13322,-0.08117c0.04282,-0.02923 0.08405,-0.0605 0.1237,-0.0938c0.04018,-0.0333 0.07824,-0.06847 0.11419,-0.10552c0.03648,-0.03704 0.0711,-0.07578 0.10388,-0.11622c0.03278,-0.04044 0.06344,-0.08238 0.09198,-0.12581c0.02802,-0.04344 0.05419,-0.08817 0.0785,-0.13419c0.02432,-0.04602 0.04599,-0.09311 0.06502,-0.14127c0.01956,-0.04816 0.03674,-0.09715 0.05154,-0.14699c0.0148,-0.04983 0.02696,-0.10026 0.03648,-0.15129c0.00952,-0.05103 0.01665,-0.10241 0.02141,-0.15414c0.00476,-0.05173 0.00687,-0.10357 0.00634,-0.15551c-0.00053,-0.05194 -0.00344,-0.10373 -0.00872,-0.15538c-0.00582,-0.05164 -0.01401,-0.10289 -0.02458,-0.15375c-0.01057,-0.05085 -0.02352,-0.10107 -0.03886,-0.15064c-0.01586,-0.04957 -0.03383,-0.09826 -0.05392,-0.14608c-0.02009,-0.04781 -0.04256,-0.09451 -0.0674,-0.14011l-14.93619,-27.36781c0.30873,-0.10525 0.64441,-0.22449 1.00706,-0.3577c1.74293,-0.64024 3.56145,-1.8043 5.45556,-3.49219c1.89464,-1.68758 3.58497,-4.00056 5.07098,-6.93895c1.50927,-2.98449 2.2639,-6.75966 2.2639,-11.32552c0,-2.81252 -0.30582,-5.28904 -0.91745,-7.42956c-0.61269,-2.14379 -1.41913,-4.00915 -2.41932,-5.59607c-1.00759,-1.59803 -2.17694,-2.95748 -3.50805,-4.07835c-1.27614,-1.07478 -2.55703,-1.9843 -3.84268,-2.72857c-0.01216,-0.00719 -0.02458,-0.01417 -0.03727,-0.02093c-3.12902,-1.70048 -6.65293,-2.65205 -10.57174,-2.85473c-0.02696,-0.00143 -0.05419,-0.00214 -0.08167,-0.00214h-34.35101c-0.05181,0 -0.10361,0.00254 -0.15542,0.00761c-0.05181,0.00513 -0.10308,0.01274 -0.15383,0.02284c-0.05128,0.01015 -0.10176,0.02276 -0.15146,0.03782c-0.04969,0.01507 -0.09833,0.03254 -0.1459,0.05241c-0.04811,0.01988 -0.09516,0.04208 -0.14115,0.06661c-0.04546,0.02448 -0.08987,0.05115 -0.13322,0.08001c-0.04335,0.02881 -0.08511,0.05971 -0.12529,0.0927c-0.04018,0.03293 -0.0785,0.06777 -0.11498,0.10451c-0.037,0.03674 -0.0719,0.07517 -0.10467,0.1153c-0.03278,0.04018 -0.0637,0.08186 -0.09278,0.12505c-0.02908,0.04319 -0.05577,0.08767 -0.08009,0.13346c-0.02432,0.04583 -0.04652,0.09272 -0.06661,0.14067c-0.01956,0.048 -0.037,0.09685 -0.05234,0.14654c-0.0148,0.04974 -0.02749,0.10007 -0.03806,0.15098c-0.01004,0.05096 -0.01745,0.10229 -0.0222,0.15399c-0.00529,0.05165 -0.00793,0.10345 -0.00793,0.15542v11.89439c0,0.05197 0.00264,0.10377 0.00793,0.15542c0.00476,0.0517 0.01216,0.10303 0.0222,0.15399c0.01057,0.05091 0.02326,0.10123 0.03806,0.15098c0.01533,0.04969 0.03278,0.09854 0.05234,0.14654c0.02009,0.04795 0.04229,0.09484 0.06661,0.14067c0.02432,0.04578 0.05101,0.09027 0.08009,0.13346c0.02908,0.04319 0.06,0.08487 0.09278,0.12505c0.03278,0.04012 0.06767,0.07856 0.10467,0.1153c0.03648,0.03674 0.0748,0.07158 0.11498,0.10451c0.04018,0.03299 0.08194,0.06389 0.12529,0.0927c0.04335,0.02886 0.08775,0.05553 0.13322,0.08001c0.04599,0.02453 0.09304,0.04673 0.14115,0.06661c0.04758,0.01988 0.09621,0.03735 0.1459,0.05241c0.04969,0.01507 0.10018,0.02767 0.15146,0.03782c0.05075,0.0101 0.10203,0.01771 0.15383,0.02284c0.05181,0.00507 0.10361,0.00761 0.15542,0.00761h34.31533c1.17252,0.05572 2.20919,0.35879 3.10999,0.90921c0.01639,0.00994 0.03278,0.01961 0.04916,0.02902c0.78873,0.44353 1.5246,1.19071 2.2076,2.24154c0.65393,1.0059 0.98089,2.49402 0.98089,4.46436c0,2.03373 -0.32696,3.55357 -0.98089,4.55952c-0.683,1.05088 -1.41887,1.79806 -2.2076,2.24154c-0.01639,0.00941 -0.03278,0.01908 -0.04916,0.02902c-0.9008,0.55042 -1.93746,0.85349 -3.10999,0.90921h-34.31533c-0.05181,0 -0.10361,0.00254 -0.15542,0.00761c-0.05181,0.00513 -0.10308,0.01274 -0.15383,0.02284c-0.05128,0.01015 -0.10176,0.02276 -0.15146,0.03782c-0.04969,0.01507 -0.09833,0.03254 -0.1459,0.05241c-0.04811,0.01988 -0.09516,0.04208 -0.14115,0.06661c-0.04546,0.02448 -0.08987,0.05115 -0.13322,0.08001c-0.04335,0.02881 -0.08511,0.05971 -0.12529,0.0927c-0.04018,0.03293 -0.0785,0.06777 -0.11498,0.10451c-0.037,0.03674 -0.0719,0.07517 -0.10467,0.1153c-0.03278,0.04018 -0.0637,0.08186 -0.09278,0.12505c-0.02908,0.04319 -0.05577,0.08767 -0.08009,0.13346c-0.02432,0.04583 -0.04652,0.09272 -0.06661,0.14067c-0.01956,0.048 -0.037,0.09685 -0.05234,0.14654c-0.0148,0.04974 -0.02749,0.10007 -0.03806,0.15098c-0.01004,0.05096 -0.01745,0.10229 -0.0222,0.15399c-0.00529,0.05165 -0.00793,0.10345 -0.00793,0.15542v11.79924c0,0.05197 0.00264,0.10377 0.00793,0.15542c0.00476,0.0517 0.01216,0.10303 0.0222,0.15399c0.01057,0.05091 0.02326,0.10123 0.03806,0.15098c0.01533,0.04969 0.03278,0.09854 0.05234,0.14654c0.02009,0.04795 0.04229,0.09484 0.06661,0.14067c0.02432,0.04578 0.05101,0.09027 0.08009,0.13346c0.02908,0.04319 0.06,0.08487 0.09278,0.12505c0.03278,0.04012 0.06767,0.07856 0.10467,0.1153c0.03648,0.03674 0.0748,0.07158 0.11498,0.10451c0.04018,0.03299 0.08194,0.06389 0.12529,0.0927c0.04335,0.02886 0.08775,0.05553 0.13322,0.08001c0.04599,0.02453 0.09304,0.04673 0.14115,0.06661c0.04758,0.01988 0.09621,0.03735 0.1459,0.05241c0.04969,0.01507 0.10018,0.02767 0.15146,0.03782c0.05075,0.0101 0.10203,0.01771 0.15383,0.02284c0.05181,0.00507 0.10361,0.00761 0.15542,0.00761h25.50951l15.34535,28.28778c0.03383,0.06246 0.07163,0.12237 0.11339,0.17974c0.04229,0.05737 0.08802,0.11167 0.13718,0.16291c0.04916,0.05124 0.1015,0.09895 0.15701,0.14314c0.05604,0.04419 0.11445,0.08446 0.17524,0.1208c0.06132,0.03634 0.12449,0.06844 0.18952,0.09628c0.06555,0.02784 0.13269,0.05119 0.20141,0.07003c0.06819,0.01885 0.13745,0.03303 0.20776,0.04253c0.07084,0.00951 0.14168,0.01427 0.21251,0.01427zM393.95683,269.14484l-14.61107,-26.77182c-0.06344,-0.11651 -0.11154,-0.23908 -0.14432,-0.3677c-0.03278,-0.12862 -0.04916,-0.2593 -0.04916,-0.39204c0,-0.05197 0.00264,-0.10377 0.00793,-0.15542c0.00476,-0.0517 0.01216,-0.10303 0.0222,-0.15399c0.01057,-0.05091 0.02326,-0.10123 0.03806,-0.15098c0.01533,-0.04969 0.03278,-0.09854 0.05234,-0.14654c0.02009,-0.04795 0.04229,-0.09484 0.06661,-0.14067c0.02432,-0.04578 0.05101,-0.09027 0.08009,-0.13346c0.02908,-0.04319 0.06,-0.08487 0.09278,-0.12505c0.03278,-0.04012 0.06767,-0.07856 0.10467,-0.1153c0.03648,-0.03674 0.0748,-0.07158 0.11498,-0.10451c0.04018,-0.03299 0.08194,-0.06389 0.12529,-0.0927c0.04335,-0.02886 0.08775,-0.05553 0.13322,-0.08001c0.04599,-0.02453 0.09304,-0.04673 0.14115,-0.06661c0.04758,-0.01988 0.09621,-0.03735 0.1459,-0.05241c0.04969,-0.01507 0.10018,-0.02767 0.15146,-0.03782c0.05075,-0.0101 0.10203,-0.01771 0.15383,-0.02284c0.05181,-0.00507 0.10361,-0.00761 0.15542,-0.00761c0.12899,0 0.8823,-0.25303 2.25993,-0.7591c1.36548,-0.50163 2.84567,-1.46269 4.44057,-2.8832c1.59438,-1.42088 3.04417,-3.42159 4.34938,-6.00215c1.28195,-2.53451 1.92293,-5.83254 1.92293,-9.89407c0,-2.51633 -0.26511,-4.70241 -0.79534,-6.55825c-0.52917,-1.85278 -1.21349,-3.44472 -2.05297,-4.77584c-0.83208,-1.32007 -1.78786,-2.43465 -2.86734,-3.34375c-1.12812,-0.95007 -2.25174,-1.74977 -3.37087,-2.3991c-2.69183,-1.4592 -5.74552,-2.27973 -9.16106,-2.46158h-32.72386v8.72256h32.76509c0.02273,0 0.04573,0.0005 0.06899,0.00151c1.72125,0.07486 3.2662,0.52764 4.63485,1.35834c1.2312,0.69886 2.32681,1.78656 3.28682,3.26311c0.99543,1.53152 1.49314,3.59586 1.49314,6.19301c0,2.66059 -0.49771,4.75665 -1.49314,6.28817c-0.95948,1.47644 -2.05509,2.56414 -3.28682,3.26311c-1.36865,0.8307 -2.9136,1.28348 -4.63485,1.35834c-0.02326,0.001 -0.04626,0.00151 -0.06899,0.00151h-32.76509v8.6274h24.86721c0.07084,0 0.14168,0.00476 0.21251,0.01427c0.07031,0.00952 0.13956,0.02368 0.20776,0.0425c0.06872,0.01887 0.13586,0.04221 0.20141,0.07002c0.06502,0.02786 0.1282,0.05997 0.18952,0.09634c0.06079,0.03632 0.11921,0.07657 0.17524,0.12077c0.05551,0.04419 0.10784,0.0919 0.15701,0.14313c0.04916,0.05123 0.09489,0.10554 0.13718,0.16295c0.04176,0.05736 0.07956,0.11725 0.11339,0.17968l15.34535,28.2878z" data-paper-data="{&quot;glyphName&quot;:&quot;R&quot;,&quot;glyphIndex&quot;:3,&quot;fontStyleEffect&quot;:true,&quot;word&quot;:1}" fill-rule="evenodd" style="fill: rgb(0, 0, 0);"></path><path d="M481.59314,270.02076l-35.77834,-71.46154c-0.07665,-0.15341 -0.17577,-0.29075 -0.29736,-0.41202c-0.12106,-0.12122 -0.2585,-0.22015 -0.41234,-0.2968c-0.04599,-0.02321 -0.0933,-0.04409 -0.14194,-0.06264c-0.04863,-0.01856 -0.09806,-0.03468 -0.14828,-0.04837c-0.05022,-0.01369 -0.10071,-0.02487 -0.15146,-0.03354c-0.05128,-0.00872 -0.10282,-0.01491 -0.15463,-0.01856c-0.05181,-0.0037 -0.10361,-0.00481 -0.15542,-0.00333c-0.05234,0.00143 -0.10414,0.00539 -0.15542,0.01189c-0.05181,0.00656 -0.10282,0.01559 -0.15304,0.02712c-0.05075,0.01158 -0.10071,0.02559 -0.14987,0.04203c-0.04969,0.01644 -0.09806,0.03526 -0.14511,0.05646c-0.04758,0.0212 -0.09383,0.04467 -0.13877,0.07041c-0.04546,0.02574 -0.08934,0.05363 -0.13163,0.08366c-0.04229,0.03008 -0.083,0.06214 -0.12212,0.09619c-0.03912,0.03404 -0.07665,0.06994 -0.1126,0.10768c-0.03542,0.03774 -0.06925,0.07713 -0.1015,0.11815c-0.03172,0.04108 -0.06132,0.08358 -0.08881,0.12751c-0.02749,0.04398 -0.05286,0.08921 -0.07612,0.13568l-35.68318,71.46154c-0.11154,0.22303 -0.16731,0.4592 -0.16731,0.70849c0,0.05194 0.00264,0.10376 0.00793,0.15545c0.00476,0.05169 0.01216,0.10301 0.0222,0.15395c0.01057,0.05094 0.02326,0.10127 0.03806,0.15097c0.01533,0.0497 0.03278,0.09855 0.05234,0.14654c0.02009,0.04799 0.04229,0.09488 0.06661,0.14069c0.02432,0.04581 0.05101,0.09031 0.08009,0.13349c0.02908,0.04319 0.06,0.08486 0.09278,0.12501c0.03278,0.04015 0.06767,0.07859 0.10467,0.11531c0.03648,0.03673 0.0748,0.07157 0.11498,0.10452c0.04018,0.03295 0.08194,0.06385 0.12529,0.09271c0.04335,0.02886 0.08775,0.05553 0.13322,0.08001c0.04599,0.02449 0.09304,0.04667 0.14115,0.06655c0.04758,0.01988 0.09621,0.03735 0.1459,0.05243c0.04969,0.01508 0.10018,0.02768 0.15146,0.03782c0.05075,0.01013 0.10203,0.01775 0.15383,0.02284c0.05181,0.00509 0.10361,0.00764 0.15542,0.00764h14.46358c0.07454,0 0.14881,-0.00526 0.22282,-0.01578c0.07401,-0.01052 0.14696,-0.02619 0.21886,-0.04702c0.0719,-0.02083 0.14194,-0.0466 0.21013,-0.07733c0.06819,-0.03072 0.13375,-0.06608 0.19665,-0.10609c0.06344,-0.04001 0.12344,-0.08426 0.18,-0.13276c0.05709,-0.0485 0.11049,-0.10075 0.16018,-0.15677c0.04916,-0.05602 0.09436,-0.11524 0.1356,-0.17767c0.04123,-0.06243 0.07771,-0.12744 0.10943,-0.19503l19.7891,-41.88497l19.8787,41.88745c0.03225,0.06743 0.06899,0.13228 0.11022,0.19455c0.04071,0.06227 0.0859,0.12134 0.1356,0.1772c0.04969,0.05587 0.10282,0.10798 0.15938,0.15634c0.05709,0.04836 0.11709,0.09249 0.18,0.13238c0.06291,0.03989 0.12846,0.07515 0.19665,0.10579c0.06819,0.03063 0.13824,0.05633 0.21013,0.07709c0.07137,0.02077 0.14405,0.0364 0.21806,0.04688c0.07401,0.01049 0.14828,0.01573 0.22282,0.01573h14.46358c0.25005,0 0.48661,-0.05594 0.7097,-0.16781c0.04652,-0.02325 0.09172,-0.04873 0.1356,-0.07643c0.04388,-0.02769 0.08643,-0.05747 0.12767,-0.08934c0.04123,-0.03187 0.08062,-0.06566 0.11815,-0.1014c0.03753,-0.03574 0.07348,-0.07323 0.10784,-0.11249c0.03383,-0.03926 0.06582,-0.08009 0.09595,-0.12249c0.0296,-0.0424 0.05736,-0.08617 0.08326,-0.13131c0.0259,-0.04514 0.04943,-0.09143 0.07057,-0.13887c0.02115,-0.04744 0.03991,-0.0958 0.0563,-0.14509c0.01639,-0.04928 0.03013,-0.09925 0.04123,-0.14991c0.01163,-0.05065 0.02062,-0.10175 0.02696,-0.15329c0.00687,-0.05154 0.01084,-0.10327 0.01189,-0.15519c0.00159,-0.05192 0.00053,-0.10379 -0.00317,-0.1556c-0.0037,-0.05181 -0.01004,-0.10331 -0.01903,-0.15451c-0.00846,-0.0512 -0.01956,-0.10184 -0.0333,-0.15193c-0.01374,-0.05009 -0.02987,-0.09938 -0.04837,-0.14788c-0.01903,-0.0485 -0.04018,-0.09597 -0.06344,-0.14242zM444.39857,202.81543l-33.12034,66.32941h10.89447l20.79061,-44.00482c0.07824,-0.16562 0.18212,-0.31327 0.31163,-0.44295c0.12899,-0.12968 0.27648,-0.23376 0.44247,-0.31227c0.09357,-0.04467 0.1911,-0.07972 0.2926,-0.10515c0.10097,-0.02543 0.20326,-0.04078 0.30688,-0.04607c0.10414,-0.00523 0.20776,-0.00026 0.31084,0.01491c0.10308,0.01512 0.20353,0.04015 0.30132,0.07509c0.09833,0.03494 0.19216,0.07914 0.2815,0.13258c0.08934,0.05339 0.1726,0.11501 0.24978,0.18484c0.07718,0.06983 0.14696,0.14654 0.20934,0.23012c0.06185,0.08358 0.11524,0.17239 0.16018,0.26643l20.88497,44.00728h10.89289z" data-paper-data="{&quot;glyphName&quot;:&quot;A&quot;,&quot;glyphIndex&quot;:4,&quot;lastGlyphOfWord&quot;:true,&quot;fontStyleEffect&quot;:true,&quot;word&quot;:1}" fill-rule="evenodd" style="fill: rgb(0, 0, 0);"></path><g data-paper-data="{&quot;fillRule&quot;:&quot;nonzero&quot;,&quot;fillRuleOriginal&quot;:&quot;nonzero&quot;,&quot;isIcon&quot;:true,&quot;iconStyle&quot;:&quot;icon-in-text&quot;,&quot;selectedEffects&quot;:{&quot;container&quot;:&quot;shield_simple_filled&quot;,&quot;transformation&quot;:&quot;rotate0;translate50&quot;,&quot;pattern&quot;:&quot;&quot;},&quot;bounds&quot;:{&quot;x&quot;:68.23883519612558,&quot;y&quot;:199.36439532866547,&quot;width&quot;:55.77633038025792,&quot;height&quot;:71.36636449532938},&quot;widthRatioIconToContainer&quot;:0.8987905151854049,&quot;heightRatioIconToContainer&quot;:0.5775680565909811,&quot;relativeBoundsIconToContainer&quot;:{&quot;top&quot;:-0.007598265262722812,&quot;left&quot;:0.000002435086693196266},&quot;iconType&quot;:&quot;icon&quot;,&quot;rawIconId&quot;:&quot;1d38414a-b506-4a12-a184-bdce806f4888&quot;,&quot;isDetailed&quot;:false,&quot;blockLetter&quot;:&quot;V&quot;,&quot;suitableAsStandaloneIcon&quot;:true}" fill-rule="nonzero" style="fill: rgb(0, 0, 0);"><path d="M94.10089,270.23396c-1.77556,-0.70079 -5.05735,-2.3287 -6.76029,-3.35341c-3.30595,-1.9893 -7.36609,-5.46953 -9.88916,-8.4767c-4.62934,-5.51758 -8.21012,-13.5887 -9.02429,-20.34091c-0.23858,-1.97865 -0.25641,-33.89047 -0.01939,-34.7169c0.18952,-0.6608 0.72697,-1.29076 1.39989,-1.64084c0.52586,-0.27357 4.36391,-0.85565 9.75862,-1.48002c6.54766,-0.7578 8.64422,-0.8651 16.81621,-0.86065c8.46222,0.00461 10.92014,0.15118 18.50629,1.10353c7.58514,0.95223 7.98559,1.05204 8.74555,2.17975l0.38084,0.56513v17.43621c0,11.72295 -0.05964,17.7648 -0.18204,18.43904c-1.52696,8.41184 -5.45558,16.04445 -11.21789,21.79441c-3.93307,3.92463 -8.72423,7.07469 -13.95115,9.1725c-2.13,0.85487 -2.78533,0.88055 -4.5632,0.17886zM83.17141,214.02537v10.29665l-4.01504,5.05119l-4.46836,-4.79215c0.84186,-2.13704 2.33131,-4.01504 4.20932,-5.31022v-4.01504c-2.91415,1.35993 -5.31022,3.69125 -6.79967,6.54064c-0.38855,0.84186 -0.7771,1.74849 -1.03614,2.65511l6.47588,6.92919v6.67015c-0.51807,-0.7771 -1.03614,-1.55421 -1.42469,-2.33131v6.41112c1.94276,2.59035 4.20932,4.92167 6.34636,6.86443v-4.98643c-0.51807,-0.51807 -0.97138,-1.03614 -1.42469,-1.55421v-11.07375l5.63401,-7.05871v-10.29665c-0.51807,-0.06476 -1.03614,-0.12952 -1.61897,-0.12952c-0.64759,0 -1.23042,0.06476 -1.878,0.12952zM100.51715,215.89346c0,0 0,0 0,0v0zM100.51715,230.56535l-4.39002,4.56331l-4.44778,-4.56331v-14.67189c-0.98198,-0.51987 -2.02172,-0.98198 -3.11922,-1.21303v17.15572l6.06515,6.29621v12.24583l-1.67514,-1.21303v3.87015c1.03974,0.69316 2.07948,1.38632 3.17698,2.07948c1.0975,-0.69316 2.13724,-1.38632 3.11922,-2.07948v-3.87015c-0.46211,0.40434 -0.98198,0.75092 -1.44408,1.0975v-12.30359l5.89186,-6.12292v-17.15572c-1.15526,0.23105 -2.19501,0.69316 -3.17698,1.21303zM113.35694,215.25579v4.01504c1.878,1.29517 3.36745,3.17318 4.20932,5.31022l-4.4036,4.79215l-4.0798,-5.05119v-10.29665c-0.58283,-0.06476 -1.23042,-0.12952 -1.878,-0.12952c-0.51807,0 -1.1009,0.06476 -1.61897,0.12952v10.29665l5.63401,7.05871v11.07375c-0.45331,0.51807 -0.90662,1.03614 -1.42469,1.55421v4.98643c2.13704,-1.94276 4.4036,-4.27408 6.34636,-6.86443v-6.41112c-0.38855,0.7771 -0.84186,1.55421 -1.35993,2.33131v-6.67015l3.43222,-3.75601l2.9789,-3.17318c-0.25903,-0.90662 -0.58283,-1.81324 -1.03614,-2.65511c-1.48945,-2.84939 -3.88553,-5.1807 -6.79967,-6.54064z" data-paper-data="{&quot;isPathIcon&quot;:true}" style="fill: rgb(0, 0, 0);"></path></g></g></g></g></svg>